<svg viewBox="0 0 29700 21000" fill="none" xmlns="http://www.w3.org/2000/svg">
  <path  fill="#00B4D8" d="M19606.97 13662.03c-103.42,831.57 -777.31,604.52 -1147.35,-137.35 -2182.6,-4375.77 -6559.47,-4672.14 -7621.47,148.25 -172.66,783.74 -1183.31,858.14 -1337.63,-16.71 -862.73,-4890.88 -998.37,-10232.02 -25.32,-12369.16l3212.68 4586.53c64.3,91.8 105.38,49.2 226.33,39.1 3494.13,-292.03 7167.25,3934.43 6692.76,7749.34z"/>
  <path  fill="#0077B6" d="M18964.29 10093.15c-358.87,-701.63 -717.12,-1325.65 -1260.82,-1978.3 1049.04,55.41 1951.33,287.68 3282.6,-961.13 -140.23,1734.17 -911.94,2273.48 -2021.78,2939.43z"/>
  <path  fill="#00B4D8" d="M13036.67 4097.83c-2000.68,20.1 -2492.04,-1756.27 -3575.35,-2758.54 30.02,-120.6 130.21,-221.19 262.43,-317.69 488.64,-356.63 1664.2,-371.62 2626.14,96.93 746.79,304.16 844.88,153.02 1734.7,20.06 261.06,-39 975.97,-223.21 1236.88,171.14 346.29,523.39 541.91,1454.82 -90.29,2242.08 -519.04,646.36 -1070.49,518.45 -2194.51,546.02z"/>
  <path  fill="#0096C7" d="M19750.68 13632.72c260.03,-2807.05 -2313.09,-6773.59 -4155.26,-6956.79 -2301.79,-369.02 -4859.13,1667.33 -3680.05,4569.76 1165.92,-1497.13 3746.76,-1253.33 5354.67,845.74l1180.64 1541.29c537.15,701.23 1178.78,885.36 1300,0z"/>
  <path  fill="#3A506B" d="M12325.5 5356.25c452.97,-1606.14 -577.79,-2845.98 -1349.93,-3805.54 -472.61,-587.34 -1248.11,-858.9 -1526.23,-222.56 -689.56,1358.07 -443.94,3941.17 1983.92,4793.47 574.82,201.79 767.44,-322.84 892.24,-765.37z"/>
  <path  fill="#1C558E" d="M7351.39 16272.01l531.54 0c214.12,0 378.76,24.18 493.34,73.15 115.2,48.97 205.98,124.55 272.34,226.12 66.99,100.96 100.18,214.02 100.18,337.36 0,116.08 -29.43,221.28 -87.66,316.2 -58.22,94.92 -143.99,171.7 -256.69,230.95 140.24,45.95 247.93,99.76 323.06,162.03 75.76,61.67 133.97,136.64 175.92,224.91 41.95,87.67 63.23,183.19 63.23,285.97 0,209.19 -78.88,386.34 -237.28,530.83 -158.39,144.5 -370.63,217.05 -637.34,217.05l-740.64 0 0 -2604.57zm262.95 253.92l0 834.34 154.64 0c187.82,0 326.18,-16.93 414.46,-50.18 88.28,-33.86 158.39,-87.06 209.74,-159.61 51.96,-72.56 77.63,-153.57 77.63,-241.84 0,-119.1 -43.2,-212.82 -129.6,-281.13 -87.02,-67.72 -224.76,-101.58 -413.84,-101.58l-313.03 0zm0 1095.52l0 1001.2 334.95 0c197.21,0 341.83,-18.74 433.87,-55.62 92.03,-37.48 165.9,-96.13 221.63,-175.33 55.72,-79.2 83.9,-165.05 83.9,-256.95 0,-116.08 -39.45,-217.65 -117.71,-304.11 -78.26,-85.85 -185.94,-145.1 -323.06,-177.15 -92.03,-21.16 -252.3,-32.04 -480.82,-32.04l-152.76 0zm1865.71 -1461.9c58.23,0 107.68,19.95 149,60.46 41.32,39.9 61.99,88.88 61.99,145.1 0,55.63 -20.67,103.99 -61.99,143.9 -41.32,40.5 -90.77,60.45 -149,60.45 -57.6,0 -106.43,-19.95 -147.75,-60.45 -41.33,-39.91 -61.99,-88.27 -61.99,-143.9 0,-56.22 20.66,-105.2 61.99,-145.1 41.32,-40.51 90.15,-60.46 147.75,-60.46zm-127.09 790.81l255.43 0 0 1926.22 -255.43 0 0 -1926.22zm495.23 0l308.03 0 529.65 703.74 524.02 -703.74 306.16 0 -676.16 908.7 766.31 1017.52 -308.03 0 -611.05 -811.96 -604.16 811.96 -306.14 0 756.29 -1016.32 -684.92 -909.9zm3946.77 0l0 1926.22 -255.44 0 0 -331.32c-107.68,126.36 -227.89,221.28 -361.86,284.16 -133.36,62.88 -279.86,94.32 -438.26,94.32 -281.73,0 -522.77,-98.55 -722.48,-295.65 -199.72,-197.7 -299.27,-437.12 -299.27,-720.06 0,-276.3 100.8,-513.3 302.4,-709.79 200.96,-196.49 443.26,-295.04 726.87,-295.04 163.4,0 311.15,33.25 443.88,99.76 132.1,66.5 248.55,166.86 348.72,301.69l0 -354.29 255.44 0zm-1028.01 192.26c-142.74,0 -274.84,33.85 -395.05,101.57 -120.84,67.11 -216.62,162.03 -287.99,284.15 -71.38,122.13 -107.06,251.51 -107.06,388.15 0,134.82 35.68,264.21 107.68,387.54 72,123.34 168.42,219.47 289.88,287.79 121.45,68.92 251.67,103.38 390.66,103.38 139.61,0 272.97,-33.85 398.18,-102.17 125.84,-68.32 222.26,-160.22 289.88,-276.9 67.61,-116.09 101.42,-247.28 101.42,-392.99 0,-221.88 -75.76,-407.49 -227.89,-556.83 -151.51,-149.33 -338.08,-223.69 -559.71,-223.69zm1440.6 -192.26l262.95 0 0 281.74c78.26,-111.25 160.9,-193.47 247.92,-247.89 87.03,-53.81 177.81,-81.01 271.72,-81.01 71.37,0 147.12,21.76 227.9,65.29l-133.99 207.98c-53.84,-22.37 -98.92,-33.85 -135.85,-33.85 -85.78,0 -168.42,33.85 -247.93,101.57 -79.51,67.71 -140.24,173.51 -182.19,316.2 -31.93,109.43 -47.58,331.31 -47.58,665.05l0 651.14 -262.95 0 0 -1926.22zm3146.02 0l0 1926.22 -255.44 0 0 -331.32c-107.68,126.36 -227.89,221.28 -361.86,284.16 -133.36,62.88 -279.86,94.32 -438.26,94.32 -281.73,0 -522.77,-98.55 -722.48,-295.65 -199.72,-197.7 -299.27,-437.12 -299.27,-720.06 0,-276.3 100.8,-513.3 302.4,-709.79 200.96,-196.49 443.26,-295.04 726.87,-295.04 163.41,0 311.15,33.25 443.88,99.76 132.1,66.5 248.55,166.86 348.72,301.69l0 -354.29 255.44 0zm-1028.01 192.26c-142.74,0 -274.84,33.85 -395.05,101.57 -120.83,67.11 -216.62,162.03 -287.99,284.15 -71.38,122.13 -107.06,251.51 -107.06,388.15 0,134.82 35.68,264.21 107.68,387.54 72,123.34 168.42,219.47 289.88,287.79 121.45,68.92 251.67,103.38 390.66,103.38 139.61,0 272.97,-33.85 398.18,-102.17 125.84,-68.32 222.26,-160.22 289.88,-276.9 67.61,-116.09 101.42,-247.28 101.42,-392.99 0,-221.88 -75.76,-407.49 -227.89,-556.83 -151.51,-149.33 -338.08,-223.69 -559.71,-223.69zm3529.18 -935.91l0 2669.87 -255.44 0 0 -331.32c-107.68,126.36 -227.89,221.28 -361.87,284.16 -133.35,62.88 -279.86,94.32 -438.25,94.32 -281.73,0 -522.77,-98.55 -722.49,-295.65 -199.71,-197.7 -299.26,-437.12 -299.26,-720.06 0,-276.3 100.8,-513.3 302.4,-709.79 200.96,-196.49 443.26,-295.04 726.87,-295.04 163.39,0 311.15,33.86 443.88,100.96 132.1,67.11 248.54,168.08 348.72,302.9l0 -1100.35 255.44 0zm-1028.02 935.91c-142.73,0 -274.84,33.85 -395.04,101.57 -120.84,67.11 -216.62,162.03 -288,284.15 -71.37,122.13 -107.06,251.51 -107.06,388.15 0,134.82 35.69,264.21 107.69,387.54 72,123.34 168.41,219.47 289.86,287.79 121.47,68.92 251.69,103.38 390.68,103.38 139.61,0 272.97,-33.85 398.18,-102.17 125.84,-68.32 222.26,-160.22 289.87,-276.9 67.62,-116.09 101.43,-247.28 101.43,-392.99 0,-221.88 -75.76,-407.49 -227.89,-556.83 -151.51,-149.33 -338.08,-223.69 -559.72,-223.69zm3528.55 -192.26l0 1926.22 -255.43 0 0 -331.32c-107.69,126.36 -227.89,221.28 -361.87,284.16 -133.35,62.88 -279.86,94.32 -438.26,94.32 -281.72,0 -522.76,-98.55 -722.47,-295.65 -199.73,-197.7 -299.27,-437.12 -299.27,-720.06 0,-276.3 100.8,-513.3 302.39,-709.79 200.97,-196.49 443.26,-295.04 726.87,-295.04 163.41,0 311.16,33.25 443.88,99.76 132.11,66.5 248.55,166.86 348.73,301.69l0 -354.29 255.43 0zm-1028.01 192.26c-142.74,0 -274.84,33.85 -395.04,101.57 -120.84,67.11 -216.63,162.03 -288,284.15 -71.37,122.13 -107.06,251.51 -107.06,388.15 0,134.82 35.69,264.21 107.69,387.54 72,123.34 168.41,219.47 289.87,287.79 121.46,68.92 251.68,103.38 390.67,103.38 139.61,0 272.96,-33.85 398.18,-102.17 125.84,-68.32 222.25,-160.22 289.87,-276.9 67.61,-116.09 101.42,-247.28 101.42,-392.99 0,-221.88 -75.76,-407.49 -227.89,-556.83 -151.5,-149.33 -338.08,-223.69 -559.71,-223.69z"/>

</svg>
